<svg xmlns="http://www.w3.org/2000/svg" viewBox="0 0 900 470" role="img" aria-labelledby="title desc">
  <title id="title">Cat vs Dog ML Classifier preview</title>
  <desc id="desc">Terminal style preview for an image classification pipeline.</desc>
  <rect width="900" height="470" fill="#090b0a"/>
  <path d="M0 78h900M0 156h900M0 234h900M0 312h900M0 390h900M150 0v470M300 0v470M450 0v470M600 0v470M750 0v470" stroke="#1e261f" stroke-width="2"/>
  <rect x="54" y="50" width="792" height="370" fill="#111512" stroke="#b7f436" stroke-width="3"/>
  <text x="84" y="100" fill="#b7f436" font-family="Menlo, monospace" font-size="24">CAT_DOG_ML_CLASSIFIER</text>
  <text x="84" y="150" fill="#e9eee8" font-family="Menlo, monospace" font-size="20">$ train svm --features hog</text>
  <rect x="84" y="190" width="220" height="145" fill="#171c18" stroke="#394039"/>
  <rect x="346" y="190" width="220" height="145" fill="#171c18" stroke="#394039"/>
  <path d="M626 262h120M686 202v120" stroke="#b7f436" stroke-width="10"/>
  <text x="126" y="268" fill="#b7f436" font-family="Menlo, monospace" font-size="22">HOG</text>
  <text x="385" y="268" fill="#b7f436" font-family="Menlo, monospace" font-size="22">SVM</text>
  <text x="84" y="388" fill="#98a098" font-family="Menlo, monospace" font-size="18">features / grid search / predictions</text>
</svg>
