<svg xmlns="http://www.w3.org/2000/svg" viewBox="0 0 900 470" role="img" aria-labelledby="title desc">
  <title id="title">AI Medical Coding Assistant preview</title>
  <desc id="desc">Terminal style dashboard preview for a healthcare AI coding assistant.</desc>
  <rect width="900" height="470" fill="#090b0a"/>
  <path d="M0 78h900M0 156h900M0 234h900M0 312h900M0 390h900M150 0v470M300 0v470M450 0v470M600 0v470M750 0v470" stroke="#1e261f" stroke-width="2"/>
  <rect x="54" y="50" width="792" height="370" fill="#111512" stroke="#b7f436" stroke-width="3"/>
  <text x="84" y="100" fill="#b7f436" font-family="Menlo, monospace" font-size="24">AI_MEDICAL_CODING_ASSISTANT</text>
  <text x="84" y="150" fill="#e9eee8" font-family="Menlo, monospace" font-size="20">$ upload patient_case.pdf</text>
  <rect x="84" y="185" width="300" height="34" fill="#b7f436"/>
  <text x="104" y="209" fill="#090b0a" font-family="Menlo, monospace" font-size="18">ICD-10: suggested</text>
  <rect x="84" y="244" width="690" height="22" fill="#273225"/>
  <rect x="84" y="286" width="560" height="22" fill="#273225"/>
  <rect x="84" y="328" width="630" height="22" fill="#273225"/>
  <text x="84" y="388" fill="#98a098" font-family="Menlo, monospace" font-size="18">audit trail / case status / review queue</text>
</svg>
